<svg version="1.0" xmlns="http://www.w3.org/2000/svg" viewBox="0 0 2000.000000 550.000000" preserveAspectRatio="xMidYMid meet">

<g transform="translate(0.000000,550.000000) scale(0.100000,-0.100000)"
fill="#000000" stroke="none">
<path d="M1880 5489 c-436 -55 -861 -302 -1126 -654 -201 -267 -334 -625 -334
-901 l0 -74 -210 0 -210 0 0 -615 0 -615 208 -2 207 -3 3 -1238 2 -1237 615 0
615 0 0 1240 0 1240 520 0 520 0 0 615 0 615 -516 0 c-486 0 -515 1 -511 18 3
9 8 34 12 56 19 111 110 226 220 277 100 47 205 59 533 59 l282 0 0 -2060 0
-2060 620 0 620 0 -2 2518 -3 2517 -512 3 -513 2 0 155 0 155 -487 -1 c-269
-1 -517 -5 -553 -10z"/>
<path d="M9455 5485 c-621 -88 -1163 -537 -1358 -1125 -48 -144 -87 -351 -87
-460 l0 -40 -205 0 -205 0 0 -615 0 -615 205 0 205 0 0 -1240 0 -1240 620 0
620 0 0 1240 0 1240 640 0 640 0 0 -1240 0 -1240 620 0 620 0 0 240 0 240 570
0 570 0 0 -255 0 -255 445 0 445 0 2 253 3 252 114 3 c101 2 113 1 107 -14 -3
-8 -9 -46 -12 -82 -23 -254 164 -488 420 -525 367 -53 654 309 521 658 -42
112 -42 105 -2 105 l35 0 5 507 c3 356 8 520 17 547 16 51 51 86 89 86 44 0
58 -8 83 -48 l23 -37 3 -848 3 -847 494 0 495 0 0 743 c0 895 7 993 69 1027
34 18 80 12 106 -14 49 -49 48 -48 52 -928 l4 -828 490 0 489 0 0 381 c0 218
4 378 9 375 5 -3 11 4 14 16 9 32 28 11 94 -101 80 -137 147 -223 260 -331
534 -518 1381 -520 1932 -5 49 45 255 307 267 339 3 8 -125 143 -322 340 -300
299 -326 328 -312 344 8 9 138 166 288 347 150 182 293 351 318 377 l44 46
-119 154 c-165 210 -297 321 -508 425 -209 103 -387 143 -631 143 -383 0 -721
-137 -984 -400 -109 -109 -189 -223 -274 -388 -43 -84 -62 -112 -74 -110 -11
2 -30 37 -54 100 -150 400 -440 653 -841 734 -126 26 -373 15 -492 -20 -118
-36 -204 -77 -271 -132 l-55 -45 -50 44 c-62 55 -159 103 -269 135 -68 19
-116 25 -241 29 -178 6 -262 -6 -402 -58 -45 -17 -104 -39 -132 -49 l-50 -19
-45 45 -46 44 -232 0 -232 0 0 -685 0 -686 -97 3 -98 3 -3 638 -2 637 -445 0
-445 0 0 -640 0 -640 -131 0 -132 0 7 53 c4 28 40 284 82 567 l74 515 -2 600
-3 600 -513 3 -514 2 7 43 c26 169 137 293 310 345 40 12 136 16 498 19 l447
4 0 615 0 615 -532 -3 c-515 -3 -537 -4 -637 -27 -330 -73 -606 -223 -845
-459 -266 -263 -424 -577 -480 -955 -9 -57 -16 -125 -16 -151 l0 -46 -636 0
-635 0 6 48 c16 118 112 250 222 303 101 49 131 52 596 56 l437 5 0 614 0 614
-487 -1 c-337 -1 -516 -5 -578 -14z m2399 -2892 c-3 -21 -23 -157 -44 -303
l-38 -265 -1 303 -1 302 45 0 45 0 -6 -37z m2226 -1830 c0 -5 -5 -15 -10 -23
-8 -12 -10 -11 -10 8 0 12 5 22 10 22 6 0 10 -3 10 -7z"/>
<path d="M4167 3853 c-12 -11 -8 -2130 3 -2244 82 -808 648 -1404 1434 -1513
134 -18 368 -14 485 9 176 35 404 128 570 235 44 29 87 50 94 47 7 -3 43 -49
80 -103 37 -55 73 -107 81 -116 12 -16 39 -18 310 -18 l296 0 0 1855 0 1855
-614 0 -614 0 -5 -1032 c-4 -1139 -2 -1103 -68 -1236 -44 -90 -135 -184 -217
-224 -63 -31 -73 -33 -177 -33 -105 0 -114 2 -177 33 -85 42 -149 105 -188
187 -64 134 -62 105 -67 1258 l-4 1047 -608 0 c-334 0 -611 -3 -614 -7z"/>
</g>

<g transform="translate(0.000000,550.000000) scale(0.100000,-0.100000)"
fill="#ffffff" stroke="none">
<path d="M1985 5304 c-194 -22 -296 -45 -422 -95 -416 -165 -727 -483 -871
-890 -62 -175 -82 -301 -82 -510 l0 -139 -207 -2 -208 -3 -3 -422 -2 -423 210
0 210 0 0 -1240 0 -1240 425 0 425 0 0 1240 0 1240 520 0 520 0 -2 423 -3 422
-517 3 -518 2 0 127 c0 187 30 287 123 413 62 83 123 135 212 180 129 65 170
70 578 70 l357 0 0 425 0 425 -357 -1 c-197 -1 -371 -4 -388 -5z"/>
<path d="M9580 5303 c-254 -24 -447 -86 -648 -206 -245 -145 -436 -348 -566
-599 -105 -204 -154 -402 -163 -665 l-6 -163 -203 0 -204 0 0 -425 0 -425 205
0 205 0 0 -1240 0 -1240 425 0 425 0 0 1240 0 1240 520 0 520 0 0 425 0 425
-520 0 -520 0 0 98 c0 231 52 371 193 514 54 56 84 77 160 112 50 24 119 49
151 55 37 7 194 11 418 11 l358 0 0 425 0 425 -357 -2 c-197 0 -374 -3 -393
-5z"/>
<path d="M12105 5304 c-199 -23 -302 -46 -439 -101 -416 -166 -732 -501 -870
-925 -46 -141 -66 -264 -73 -450 l-6 -158 -203 0 -204 0 0 -425 0 -425 205 0
205 0 0 -1240 0 -1240 425 0 425 0 0 1240 0 1240 265 0 c225 0 265 -2 265 -15
0 -8 -9 -76 -20 -152 -10 -76 -33 -237 -50 -358 -16 -121 -37 -267 -45 -325
-8 -58 -42 -301 -75 -540 -33 -239 -65 -462 -70 -496 -6 -33 -10 -73 -10 -87
l0 -27 635 0 635 0 0 -255 0 -255 255 0 255 0 0 255 0 255 130 0 130 0 0 255
0 255 -130 0 -130 0 0 640 0 640 -255 0 -255 0 0 -640 0 -640 -350 0 c-273 0
-350 3 -350 13 0 6 5 39 10 72 5 33 41 278 80 545 39 267 81 561 95 654 24
161 25 193 25 613 l0 443 -520 0 -520 0 0 98 c0 126 22 240 64 329 68 142 155
232 292 299 118 59 156 63 562 64 l362 0 0 425 0 425 -357 -1 c-197 -1 -371
-4 -388 -5z"/>
<path d="M2900 2665 l0 -2325 425 0 425 0 0 2325 0 2325 -425 0 -425 0 0
-2325z"/>
<path d="M4360 2639 c0 -587 4 -1048 9 -1072 5 -23 14 -73 21 -112 22 -135
114 -375 192 -500 92 -146 230 -295 373 -403 87 -65 279 -161 403 -201 419
-136 793 -93 1170 135 88 54 94 58 221 161 108 88 85 93 181 -44 30 -43 60
-85 67 -93 7 -8 36 -49 66 -90 l53 -75 107 -3 107 -3 0 1666 0 1665 -425 0
-424 0 -3 -987 -3 -988 -28 -80 c-85 -240 -247 -409 -451 -473 -82 -25 -263
-21 -355 8 -183 58 -321 191 -389 373 -52 139 -52 130 -52 1175 l0 972 -420 0
-420 0 0 -1031z"/>
<path d="M18585 2783 c-56 -7 -170 -35 -240 -59 -263 -92 -485 -271 -628 -510
-221 -368 -238 -887 -42 -1277 69 -135 119 -203 235 -317 206 -203 439 -311
731 -341 326 -32 657 76 919 301 63 55 180 188 180 206 0 5 -98 107 -218 227
l-218 218 -37 -58 c-90 -145 -214 -233 -384 -274 -66 -16 -107 -20 -163 -16
-112 8 -117 11 -78 57 18 20 60 70 94 111 61 75 508 614 836 1008 l177 214
-22 31 c-43 62 -174 190 -248 246 -149 111 -340 193 -526 225 -78 14 -288 18
-368 8z m272 -614 c35 -6 63 -13 63 -15 0 -6 -669 -895 -690 -917 -17 -18 -18
-17 -33 21 -42 105 -54 329 -24 454 77 318 367 512 684 457z"/>
<path d="M15025 2740 c-163 -18 -341 -86 -464 -179 l-55 -41 -65 72 c-36 39
-72 80 -79 90 -11 15 -27 18 -88 18 l-74 0 0 -870 0 -870 300 0 299 0 3 472 3
473 28 57 c54 109 152 171 272 171 132 0 242 -79 284 -205 21 -61 21 -78 21
-835 l0 -773 300 0 300 0 0 763 c0 643 2 772 15 820 38 145 145 230 290 230
120 0 218 -62 272 -171 l28 -57 3 -792 3 -793 300 0 300 0 -3 838 c-3 810 -4
839 -24 907 -129 441 -525 717 -964 673 -191 -19 -329 -79 -452 -196 l-76 -73
-29 36 c-91 115 -282 211 -460 230 -32 3 -71 7 -88 9 -16 2 -61 0 -100 -4z"/>
<path d="M14393 773 c-58 -20 -136 -93 -167 -155 -36 -71 -37 -180 -2 -254 86
-184 325 -234 483 -100 17 15 46 54 62 88 27 52 31 72 31 138 0 66 -4 86 -31
138 -34 69 -71 104 -144 138 -59 28 -165 31 -232 7z"/>
</g>

</svg>